<svg width="24" height="24" viewBox="0 0 24 24" fill="none" xmlns="http://www.w3.org/2000/svg">
<path d="M5 20.9983C4.45 20.9983 3.975 20.8066 3.575 20.4233C3.19167 20.0233 3 19.5483 3 18.9983V4.99829C3 4.44829 3.19167 3.98163 3.575 3.59829C3.975 3.19829 4.45 2.99829 5 2.99829H19C19.55 2.99829 20.0167 3.19829 20.4 3.59829C20.8 3.98163 21 4.44829 21 4.99829V18.9983C21 19.5483 20.8 20.0233 20.4 20.4233C20.0167 20.8066 19.55 20.9983 19 20.9983H5ZM12 15.9983C12.6333 15.9983 13.2083 15.815 13.725 15.4483C14.2417 15.0816 14.6 14.5983 14.8 13.9983H19V4.99829H5V13.9983H9.2C9.4 14.5983 9.75833 15.0816 10.275 15.4483C10.7917 15.815 11.3667 15.9983 12 15.9983Z" fill="currentColor"/>
</svg>
