<svg width="24" height="24" viewBox="0 0 24 24" fill="none" xmlns="http://www.w3.org/2000/svg">
<path d="M9 16.4983C8.3 16.4983 7.70833 16.2566 7.225 15.7733C6.74167 15.29 6.5 14.6983 6.5 13.9983C6.5 13.2983 6.74167 12.7066 7.225 12.2233C7.70833 11.74 8.3 11.4983 9 11.4983C9.7 11.4983 10.2917 11.74 10.775 12.2233C11.2583 12.7066 11.5 13.2983 11.5 13.9983C11.5 14.6983 11.2583 15.29 10.775 15.7733C10.2917 16.2566 9.7 16.4983 9 16.4983ZM5 21.9983C4.45 21.9983 3.97917 21.8025 3.5875 21.4108C3.19583 21.0191 3 20.5483 3 19.9983V5.99829C3 5.44829 3.19583 4.97746 3.5875 4.58579C3.97917 4.19412 4.45 3.99829 5 3.99829H6V1.99829H8V3.99829H16V1.99829H18V3.99829H19C19.55 3.99829 20.0208 4.19412 20.4125 4.58579C20.8042 4.97746 21 5.44829 21 5.99829V19.9983C21 20.5483 20.8042 21.0191 20.4125 21.4108C20.0208 21.8025 19.55 21.9983 19 21.9983H5ZM5 19.9983H19V9.99829H5V19.9983Z" fill="currentColor"/>
</svg>
