<svg width="24" height="24" viewBox="0 0 24 24" fill="none" xmlns="http://www.w3.org/2000/svg">
<path d="M17 21.9983C16.1667 21.9983 15.4583 21.7066 14.875 21.1233C14.2917 20.54 14 19.8316 14 18.9983C14 18.8983 14.025 18.665 14.075 18.2983L7.05 14.1983C6.78333 14.4483 6.475 14.6441 6.125 14.7858C5.775 14.9275 5.4 14.9983 5 14.9983C4.16667 14.9983 3.45833 14.7066 2.875 14.1233C2.29167 13.54 2 12.8316 2 11.9983C2 11.165 2.29167 10.4566 2.875 9.87329C3.45833 9.28996 4.16667 8.99829 5 8.99829C5.4 8.99829 5.775 9.06912 6.125 9.21079C6.475 9.35246 6.78333 9.54829 7.05 9.79829L14.075 5.69829C14.0417 5.58162 14.0208 5.46912 14.0125 5.36079C14.0042 5.25246 14 5.13162 14 4.99829C14 4.16496 14.2917 3.45662 14.875 2.87329C15.4583 2.28996 16.1667 1.99829 17 1.99829C17.8333 1.99829 18.5417 2.28996 19.125 2.87329C19.7083 3.45662 20 4.16496 20 4.99829C20 5.83162 19.7083 6.53996 19.125 7.12329C18.5417 7.70662 17.8333 7.99829 17 7.99829C16.6 7.99829 16.225 7.92746 15.875 7.78579C15.525 7.64412 15.2167 7.44829 14.95 7.19829L7.925 11.2983C7.95833 11.415 7.97917 11.5275 7.9875 11.6358C7.99583 11.7441 8 11.865 8 11.9983C8 12.1316 7.99583 12.2525 7.9875 12.3608C7.97917 12.4691 7.95833 12.5816 7.925 12.6983L14.95 16.7983C15.2167 16.5483 15.525 16.3525 15.875 16.2108C16.225 16.0691 16.6 15.9983 17 15.9983C17.8333 15.9983 18.5417 16.29 19.125 16.8733C19.7083 17.4566 20 18.165 20 18.9983C20 19.8316 19.7083 20.54 19.125 21.1233C18.5417 21.7066 17.8333 21.9983 17 21.9983Z" fill="currentColor"/>
</svg>
