<svg width="24" height="24" viewBox="0 0 24 24" fill="none" xmlns="http://www.w3.org/2000/svg">
<path d="M19.6 20.9983L13.3 14.6983C12.8 15.0983 12.225 15.415 11.575 15.6483C10.925 15.8816 10.2333 15.9983 9.5 15.9983C7.68333 15.9983 6.14583 15.3691 4.8875 14.1108C3.62917 12.8525 3 11.315 3 9.49829C3 7.68162 3.62917 6.14412 4.8875 4.88579C6.14583 3.62746 7.68333 2.99829 9.5 2.99829C11.3167 2.99829 12.8542 3.62746 14.1125 4.88579C15.3708 6.14412 16 7.68162 16 9.49829C16 10.2316 15.8833 10.9233 15.65 11.5733C15.4167 12.2233 15.1 12.7983 14.7 13.2983L21 19.5983L19.6 20.9983ZM9.5 13.9983C10.75 13.9983 11.8125 13.5608 12.6875 12.6858C13.5625 11.8108 14 10.7483 14 9.49829C14 8.24829 13.5625 7.18579 12.6875 6.31079C11.8125 5.43579 10.75 4.99829 9.5 4.99829C8.25 4.99829 7.1875 5.43579 6.3125 6.31079C5.4375 7.18579 5 8.24829 5 9.49829C5 10.7483 5.4375 11.8108 6.3125 12.6858C7.1875 13.5608 8.25 13.9983 9.5 13.9983Z" fill="currentColor"/>
</svg>
