<svg width="17" height="19" viewBox="0 0 17 19" fill="none" xmlns="http://www.w3.org/2000/svg">
<path d="M0 4.16667V0H4.16667V1.66667H1.66667V4.16667H0ZM15 4.16667V1.66667H12.5V0H16.6667V4.16667H15ZM0 18.3333V14.1667H1.66667V16.6667H4.16667V18.3333H0ZM12.5 18.3333V16.6667H15V14.1667H16.6667V18.3333H12.5ZM4.16667 14.1667H12.5V4.16667H4.16667V14.1667ZM4.16667 15.8333C3.70833 15.8333 3.31611 15.6703 2.99 15.3442C2.66389 15.0181 2.50056 14.6256 2.5 14.1667V4.16667C2.5 3.70833 2.66333 3.31611 2.99 2.99C3.31667 2.66389 3.70889 2.50056 4.16667 2.5H12.5C12.9583 2.5 13.3508 2.66333 13.6775 2.99C14.0042 3.31667 14.1672 3.70889 14.1667 4.16667V14.1667C14.1667 14.625 14.0036 15.0175 13.6775 15.3442C13.3514 15.6708 12.9589 15.8339 12.5 15.8333H4.16667ZM5.83333 7.5H10.8333V5.83333H5.83333V7.5ZM5.83333 10H10.8333V8.33333H5.83333V10ZM5.83333 12.5H10.8333V10.8333H5.83333V12.5Z" fill="#26874E"/>
</svg>
