<svg width="21" height="21" viewBox="0 0 21 21" fill="none" xmlns="http://www.w3.org/2000/svg">
<path d="M4.05674 12.1702H16.227V10.1419H4.05674V12.1702ZM4.05674 9.12767H16.227V7.0993H4.05674V9.12767ZM4.05674 6.08511H16.227V4.05674H4.05674V6.08511ZM20.2837 20.2837L16.227 16.227H2.02837C1.47057 16.227 0.993056 16.0284 0.595834 15.6311C0.198611 15.2339 0 14.7564 0 14.1986V2.02837C0 1.47057 0.198611 0.993056 0.595834 0.595834C0.993056 0.198611 1.47057 0 2.02837 0H18.2553C18.8131 0 19.2906 0.198611 19.6879 0.595834C20.0851 0.993056 20.2837 1.47057 20.2837 2.02837V20.2837ZM2.02837 14.1986H17.089L18.2553 15.3396V2.02837H2.02837V14.1986Z" fill="#ADADAD"/>
</svg>
