<svg width="21" height="19" viewBox="0 0 21 19" fill="none" xmlns="http://www.w3.org/2000/svg">
<path d="M10.2857 18.35L8.79429 17.05C7.06286 15.5333 5.63143 14.225 4.5 13.125C3.36857 12.025 2.46857 11.0417 1.8 10.175C1.13143 9.29167 0.66 8.48333 0.385714 7.75C0.128571 7.01667 0 6.26667 0 5.5C0 3.93333 0.54 2.625 1.62 1.575C2.7 0.525 4.04571 0 5.65714 0C6.54857 0 7.39714 0.183333 8.20286 0.55C9.00857 0.916667 9.70286 1.43333 10.2857 2.1C10.8686 1.43333 11.5629 0.916667 12.3686 0.55C13.1743 0.183333 14.0229 0 14.9143 0C16.5257 0 17.8714 0.525 18.9514 1.575C20.0314 2.625 20.5714 3.93333 20.5714 5.5C20.5714 6.26667 20.4343 7.01667 20.16 7.75C19.9029 8.48333 19.44 9.29167 18.7714 10.175C18.1029 11.0417 17.2029 12.025 16.0714 13.125C14.94 14.225 13.5086 15.5333 11.7771 17.05L10.2857 18.35ZM10.2857 15.65C11.9314 14.2167 13.2857 12.9917 14.3486 11.975C15.4114 10.9417 16.2514 10.05 16.8686 9.3C17.4857 8.53333 17.9143 7.85834 18.1543 7.275C18.3943 6.675 18.5143 6.08333 18.5143 5.5C18.5143 4.5 18.1714 3.66667 17.4857 3C16.8 2.33333 15.9429 2 14.9143 2C14.1086 2 13.3629 2.225 12.6771 2.675C11.9914 3.10833 11.52 3.66667 11.2629 4.35H9.30857C9.05143 3.66667 8.58 3.10833 7.89429 2.675C7.20857 2.225 6.46286 2 5.65714 2C4.62857 2 3.77143 2.33333 3.08571 3C2.4 3.66667 2.05714 4.5 2.05714 5.5C2.05714 6.08333 2.17714 6.675 2.41714 7.275C2.65714 7.85834 3.08571 8.53333 3.70286 9.3C4.32 10.05 5.16 10.9417 6.22286 11.975C7.28572 12.9917 8.64 14.2167 10.2857 15.65Z" fill="#ADADAD"/>
</svg>
