<svg width="current" height="current" viewBox="0 0 100 101" fill="none" xmlns="http://www.w3.org/2000/svg">
<g clip-path="url(#clip0_778_1551)">
<path d="M45.3682 0.164062C72.779 0.164244 94.9998 22.3851 95 49.7959C94.9997 77.3574 72.6563 99.7012 45.0947 99.7012H11.8184C8.05294 99.7012 5.00026 96.6482 5 92.8828V7.0166C5.00016 3.23213 8.06806 0.164199 11.8525 0.164062H45.3682ZM25.7236 14.6514C23.2613 14.6514 21.2646 16.648 21.2646 19.1104V49.5068C31.6774 54.0435 35.0114 62.8642 35.4482 63.7363C35.7989 64.4361 36.1791 64.2227 36.3252 64.0283C35.2732 57.7301 37.7369 51.684 39.1006 49.4482C44.8279 38.7181 58.2407 36.7156 64.2314 37.0557C64.0853 39.5342 63.2089 45.6582 62.04 49.1572C59.3515 58.1381 48.89 64.4648 44.0684 66.5059C41.731 67.7887 41.1466 70.345 41.1465 71.4629V85.2129H44.4424C63.9803 85.2127 79.819 69.3738 79.8193 49.8359C79.8193 30.4045 64.0671 14.6516 44.6357 14.6514H25.7236ZM21.2646 80.7773C21.265 83.2269 23.2515 85.2129 25.7012 85.2129H35.1543C34.9927 72.2293 25.9226 66.0409 21.2646 64.5098V80.7773Z" fill="url(#paint0_linear_778_1551)"/>
</g>
<defs>
<linearGradient id="paint0_linear_778_1551" x1="5" y1="0.164063" x2="93.9671" y2="100.616" gradientUnits="userSpaceOnUse">
<stop offset="0.649038" stop-color="#26874E"/>
</linearGradient>
<clipPath id="clip0_778_1551">
<rect width="100" height="100" fill="white" transform="translate(0 0.164062)"/>
</clipPath>
</defs>
</svg>
