<svg width="167" height="55" viewBox="0 0 167 55" fill="none" xmlns="http://www.w3.org/2000/svg">
<path d="M11.5635 12.3174C19.4153 12.3175 25.7802 18.6824 25.7803 26.5342C25.7802 34.4291 19.3803 40.829 11.4854 40.8291H1.95312C0.874543 40.8291 0.000107207 39.9545 0 38.876V14.2803C0 13.1962 0.878808 12.3174 1.96289 12.3174H11.5635ZM5.93652 16.4668C5.23125 16.4668 4.65928 17.0389 4.65918 17.7441V26.4512C7.64144 27.7501 8.59694 30.2759 8.72266 30.5273C8.82296 30.7275 8.93165 30.6669 8.97363 30.6113C8.67229 28.8072 9.3789 27.075 9.76953 26.4346C11.4102 23.3612 15.2518 22.7874 16.9678 22.8848C16.9259 23.5947 16.6747 25.3493 16.3398 26.3516C15.5697 28.924 12.5735 30.7366 11.1924 31.3213C10.5227 31.6888 10.3555 32.421 10.3555 32.7412V36.6797H11.2979C16.8944 36.6797 21.4314 32.1424 21.4316 26.5459C21.4316 20.9797 16.9197 16.4668 11.3535 16.4668H5.93652ZM4.65918 35.4092C4.6595 36.1106 5.22824 36.6795 5.92969 36.6797H8.6377C8.59145 32.9601 5.99332 31.1883 4.65918 30.75V35.4092Z" fill="url(#paint0_linear_1109_308)"/>
<path d="M32.4365 29.7703C32.4365 27.717 32.8398 25.896 33.6465 24.3072C34.4776 22.7183 35.602 21.4961 37.0197 20.6406C38.4374 19.7851 40.0141 19.3573 41.7496 19.3573C43.0695 19.3573 44.3284 19.6506 45.5261 20.2373C46.7239 20.7995 47.6772 21.5572 48.386 22.5105V12.8675H53.5925V40H48.386V36.9934C47.7505 37.9956 46.8583 38.8023 45.7094 39.4134C44.5606 40.0244 43.2284 40.33 41.7129 40.33C40.0018 40.33 38.4374 39.89 37.0197 39.01C35.602 38.1301 34.4776 36.8957 33.6465 35.3068C32.8398 33.6935 32.4365 31.848 32.4365 29.7703ZM48.4227 29.8436C48.4227 28.597 48.1783 27.5337 47.6894 26.6537C47.2005 25.7493 46.5405 25.0649 45.7094 24.6005C44.8784 24.1116 43.9862 23.8672 43.0329 23.8672C42.0796 23.8672 41.1996 24.0994 40.3929 24.5638C39.5863 25.0282 38.9263 25.7127 38.413 26.6171C37.9241 27.4971 37.6797 28.5481 37.6797 29.7703C37.6797 30.9925 37.9241 32.068 38.413 32.9969C38.9263 33.9013 39.5863 34.5979 40.3929 35.0868C41.224 35.5757 42.104 35.8201 43.0329 35.8201C43.9862 35.8201 44.8784 35.5879 45.7094 35.1235C46.5405 34.6346 47.2005 33.9502 47.6894 33.0702C48.1783 32.1658 48.4227 31.0903 48.4227 29.8436ZM67.6257 40.33C65.6702 40.33 63.9102 39.9022 62.3459 39.0467C60.7815 38.1667 59.5471 36.9323 58.6426 35.3435C57.7627 33.7546 57.3227 31.9214 57.3227 29.8436C57.3227 27.7659 57.7749 25.9327 58.6793 24.3438C59.6082 22.755 60.867 21.5328 62.4558 20.6773C64.0447 19.7973 65.8169 19.3573 67.7724 19.3573C69.7278 19.3573 71.5 19.7973 73.0889 20.6773C74.6777 21.5328 75.9243 22.755 76.8287 24.3438C77.7576 25.9327 78.222 27.7659 78.222 29.8436C78.222 31.9214 77.7454 33.7546 76.7921 35.3435C75.8632 36.9323 74.5921 38.1667 72.9789 39.0467C71.39 39.9022 69.6056 40.33 67.6257 40.33ZM67.6257 35.8568C68.5545 35.8568 69.4223 35.6368 70.2289 35.1968C71.06 34.7324 71.72 34.048 72.2089 33.1435C72.6978 32.2391 72.9422 31.1392 72.9422 29.8436C72.9422 27.9126 72.4289 26.4338 71.4022 25.4071C70.4 24.356 69.1656 23.8305 67.699 23.8305C66.2324 23.8305 64.998 24.356 63.9958 25.4071C63.0181 26.4338 62.5292 27.9126 62.5292 29.8436C62.5292 31.7747 63.0058 33.2658 63.9591 34.3168C64.9369 35.3435 66.1591 35.8568 67.6257 35.8568ZM80.6674 29.7703C80.6674 27.717 81.0708 25.896 81.8774 24.3072C82.7085 22.7183 83.8329 21.4961 85.2506 20.6406C86.6684 19.7851 88.245 19.3573 89.9805 19.3573C91.3004 19.3573 92.5593 19.6506 93.757 20.2373C94.9548 20.7995 95.9081 21.5572 96.6169 22.5105V12.8675H101.823V40H96.6169V36.9934C95.9814 37.9956 95.0892 38.8023 93.9404 39.4134C92.7915 40.0244 91.4593 40.33 89.9438 40.33C88.2328 40.33 86.6684 39.89 85.2506 39.01C83.8329 38.1301 82.7085 36.8957 81.8774 35.3068C81.0708 33.6935 80.6674 31.848 80.6674 29.7703ZM96.6536 29.8436C96.6536 28.597 96.4092 27.5337 95.9203 26.6537C95.4314 25.7493 94.7714 25.0649 93.9404 24.6005C93.1093 24.1116 92.2171 23.8672 91.2638 23.8672C90.3105 23.8672 89.4305 24.0994 88.6239 24.5638C87.8172 25.0282 87.1572 25.7127 86.6439 26.6171C86.1551 27.4971 85.9106 28.5481 85.9106 29.7703C85.9106 30.9925 86.1551 32.068 86.6439 32.9969C87.1572 33.9013 87.8172 34.5979 88.6239 35.0868C89.4549 35.5757 90.3349 35.8201 91.2638 35.8201C92.2171 35.8201 93.1093 35.5879 93.9404 35.1235C94.7714 34.6346 95.4314 33.9502 95.9203 33.0702C96.4092 32.1658 96.6536 31.0903 96.6536 29.8436ZM126.013 19.6873V40H120.843V37.4334C120.183 38.3134 119.315 39.01 118.24 39.5233C117.189 40.0122 116.04 40.2567 114.793 40.2567C113.204 40.2567 111.799 39.9267 110.577 39.2667C109.355 38.5823 108.389 37.5923 107.68 36.2968C106.996 34.9768 106.654 33.4124 106.654 31.6036V19.6873H111.787V30.8703C111.787 32.4836 112.19 33.7302 112.997 34.6102C113.803 35.4657 114.903 35.8935 116.297 35.8935C117.714 35.8935 118.827 35.4657 119.633 34.6102C120.44 33.7302 120.843 32.4836 120.843 30.8703V19.6873H126.013ZM156.304 19.394C158.797 19.394 160.801 20.164 162.317 21.7039C163.857 23.2194 164.627 25.346 164.627 28.0837V40H159.493V28.7803C159.493 27.1915 159.09 25.9815 158.283 25.1505C157.477 24.2949 156.377 23.8672 154.984 23.8672C153.59 23.8672 152.478 24.2949 151.647 25.1505C150.84 25.9815 150.437 27.1915 150.437 28.7803V40H145.304V28.7803C145.304 27.1915 144.901 25.9815 144.094 25.1505C143.287 24.2949 142.187 23.8672 140.794 23.8672C139.376 23.8672 138.252 24.2949 137.421 25.1505C136.614 25.9815 136.211 27.1915 136.211 28.7803V40H131.078V19.6873H136.211V22.1439C136.871 21.2884 137.714 20.6162 138.741 20.1273C139.792 19.6384 140.941 19.394 142.187 19.394C143.776 19.394 145.194 19.7362 146.441 20.4206C147.687 21.0806 148.653 22.0339 149.337 23.2805C149.997 22.1072 150.95 21.1661 152.197 20.4573C153.468 19.7484 154.837 19.394 156.304 19.394Z" fill="#26874E"/>
<defs>
<linearGradient id="paint0_linear_1109_308" x1="0" y1="12.3174" x2="25.484" y2="41.0915" gradientUnits="userSpaceOnUse">
<stop offset="0.649038" stop-color="#26874E"/>
</linearGradient>
</defs>
</svg>
