<svg width="24" height="24" viewBox="0 0 24 24" fill="none" xmlns="http://www.w3.org/2000/svg">
<path d="M12 17.5L16 13.5L14.6 12.1L13 13.7V9.5H11V13.7L9.4 12.1L8 13.5L12 17.5ZM5 7.5V18.5H19V7.5H5ZM5 20.5C4.45 20.5 3.975 20.3083 3.575 19.925C3.19167 19.525 3 19.05 3 18.5V6.025C3 5.79167 3.03333 5.56667 3.1 5.35C3.18333 5.13333 3.3 4.93333 3.45 4.75L4.7 3.225C4.88333 2.99167 5.10833 2.81667 5.375 2.7C5.65833 2.56667 5.95 2.5 6.25 2.5H17.75C18.05 2.5 18.3333 2.56667 18.6 2.7C18.8833 2.81667 19.1167 2.99167 19.3 3.225L20.55 4.75C20.7 4.93333 20.8083 5.13333 20.875 5.35C20.9583 5.56667 21 5.79167 21 6.025V18.5C21 19.05 20.8 19.525 20.4 19.925C20.0167 20.3083 19.55 20.5 19 20.5H5ZM5.4 5.5H18.6L17.75 4.5H6.25L5.4 5.5Z" fill="#1D1B20"/>
</svg>
